<svg xmlns="http://www.w3.org/2000/svg" viewBox="0 0 24 24" fill="currentColor">
  <path d="M12.5 3.5c0-.69-.56-1.25-1.25-1.25S10 2.81 10 3.5v17c0 .69.56 1.25 1.25 1.25s1.25-.56 1.25-1.25V3.5zm-5 0c0-.69-.56-1.25-1.25-1.25S5 2.81 5 3.5v17c0 .69.56 1.25 1.25 1.25S7.5 21.19 7.5 20.5V3.5zm10 0c0-.69-.56-1.25-1.25-1.25S15 2.81 15 3.5v17c0 .69.56 1.25 1.25 1.25s1.25-.56 1.25-1.25V3.5z"/>
  <path d="M12 2C6.48 2 2 6.48 2 12s4.48 10 10 10 10-4.48 10-10S17.52 2 12 2zm-2 15l-5-5 1.41-1.41L10 14.17l7.59-7.59L19 8l-9 9z"/>
</svg>