<svg xmlns="http://www.w3.org/2000/svg" viewBox="0 0 24 24" fill="currentColor">
  <path d="M7.076 21.337H2.47a.641.641 0 0 1-.633-.74L4.944.901C5.026.382 5.474 0 5.998 0h7.46c2.57 0 4.578.543 5.622 1.566 1.035.974 1.481 2.408 1.34 3.948-.173 1.926-.754 3.307-1.701 4.182-.952.879-2.367 1.365-4.246 1.365h-2.784l-.574 3.617c-.056.351-.361.616-.72.616H7.076zm1.73-10.752h3.498c.973 0 1.702-.316 2.056-.816.324-.461.433-1.086.304-1.792-.173-.868-.973-1.392-2.055-1.392H9.472l-.574 3.616c-.054.338-.361.616-.72.616h-.372zm5.843 10.752H9.846c-.36 0-.666-.265-.72-.616l-.575-3.617h3.646c.973 0 1.702-.316 2.056-.816.324-.461.433-1.086.304-1.792-.173-.868-.973-1.392-2.055-1.392H8.178l-.574-3.617c-.056-.351-.361-.616-.72-.616H2.47a.641.641 0 0 0-.633.74l3.863 20.696c.082.519.53.901 1.054.901h4.606z"/>
</svg>